<svg xmlns="http://www.w3.org/2000/svg" viewBox="0 0 142.26 176.57"><defs><style>.a,.b{fill:none;stroke:#98795b;stroke-miterlimit:10;}.a{stroke-width:10px;}.b{stroke-width:5px;}</style></defs><title>icon_shopping_bag</title><path class="a" d="M183.06,214.9l-11,85.6A19.07,19.07,0,0,0,191,322h92.92a20.25,20.25,0,0,0,20.15-22.32L295.39,215a2.25,2.25,0,0,0-2.25-2H185.31A2.27,2.27,0,0,0,183.06,214.9Z" transform="translate(-166.93 -150.43)"/><path class="a" d="M209.88,240.89l.52-49.55c.6-19.34,5.6-35.34,28-35.89,23.22-.57,28.82,15.52,28.82,37.9v47.54" transform="translate(-166.93 -150.43)"/><circle class="b" cx="43.65" cy="86.96" r="6.29"/><circle class="b" cx="99.59" cy="86.96" r="6.29"/></svg>